# xmcd
#
# Track frame offsets: 
#        150
#        17582
#        36627
#        55439
#        73995
#        97030
#        111745
#        132103
#        141644
#        162319
#        174065
#
# Disc length: 2747 seconds
#
# Revision: 0
# Processed by: cddbd v1.5.2PL0 Copyright (c) Steve Scherf et al.
# Submitted via: ExactAudioCopy v0.99pb5
#
DISCID=aa0ab90b
DTITLE=Incarnations - Radio Retro
DYEAR=2010
DGENRE=Blues
TTITLE0=Wielkie jest czekanie
TTITLE1=Zabraklo lez
TTITLE2=Wiare przywroc mi
TTITLE3=Sniles
TTITLE4=Daj mi te noc
TTITLE5=Mow do mnie jeszcze
TTITLE6=Milosc Tobie dam
TTITLE7=Milosc Tobie dam Dub
TTITLE8=Liczenie gwiazd
TTITLE9=Nie wierz tym
TTITLE10=Usnij mi, usnij
EXTD=
EXTT0=
EXTT1=
EXTT2=
EXTT3=
EXTT4=
EXTT5=
EXTT6=
EXTT7=
EXTT8=
EXTT9=
EXTT10=
PLAYORDER=
